<?xml version="1.0" encoding="UTF-8"?>
<svg width="171px" height="21px" viewBox="0 0 171 21" version="1.1" xmlns="http://www.w3.org/2000/svg" xmlns:xlink="http://www.w3.org/1999/xlink">
    <!-- Generator: Sketch 57.1 (83088) - https://sketch.com -->
    <title>social icons</title>
    <desc>Created with Sketch.</desc>
    <defs>
        <path d="M11.1825875,20 L1.6038375,20 C0.9938375,20 0.5000875,19.5054167 0.5000875,18.89625 L0.5000875,1.10375 C0.5000875,0.494166667 0.994254167,0 1.6038375,0 L19.3963375,0 C20.0059208,0 20.5000875,0.494166667 20.5000875,1.10375 L20.5000875,18.89625 C20.5000875,19.5058333 20.0055042,20 19.3963375,20 L14.2996708,20 L14.2996708,12.255 L16.8992542,12.255 L17.2884208,9.23625 L14.2996708,9.23625 L14.2996708,7.30916667 C14.2996708,6.43541667 14.5421708,5.84 15.7955042,5.84 L17.3938375,5.83916667 L17.3938375,3.13958333 C17.1175875,3.10291667 16.1684208,3.02083333 15.0646708,3.02083333 C12.7605042,3.02083333 11.1825875,4.42708333 11.1825875,7.01041667 L11.1825875,9.23625 L8.5763375,9.23625 L8.5763375,12.255 L11.1825875,12.255 L11.1825875,20 Z" id="path-1"></path>
        <path d="M11.5275584,0.000779550849 C13.3279528,0.00404727617 13.7087532,0.0184638748 14.6229872,0.0601777148 C15.6873706,0.108724776 16.4143063,0.277786048 17.05038,0.525006897 C17.7079684,0.780524015 18.2656443,1.12245728 18.8216134,1.67838663 C19.3775427,2.23435568 19.719476,2.79203161 19.9750328,3.44962002 C20.222214,4.0856937 20.3912752,4.81262938 20.4398223,5.87701279 C20.4884884,6.94361912 20.5,7.28416306 20.5,10.0000198 C20.5,12.7158369 20.4884884,13.0563809 20.4398223,14.1229872 C20.3912752,15.1873706 20.222214,15.9143063 19.9750328,16.55038 C19.719476,17.2079684 19.3775427,17.7656443 18.8216134,18.3216134 C18.2656443,18.8775427 17.7079684,19.219476 17.05038,19.4750328 C16.4143063,19.722214 15.6873706,19.8912752 14.6229872,19.9398223 C13.5563809,19.9884884 13.2158369,20 10.5000198,20 C7.78416306,20 7.44361912,19.9884884 6.37701279,19.9398223 C5.31262938,19.8912752 4.5856937,19.722214 3.94962002,19.4750328 C3.29203161,19.219476 2.73435568,18.8775427 2.17838663,18.3216134 C1.62245728,17.7656443 1.28052401,17.2079684 1.0250069,16.55038 C0.777786048,15.9143063 0.608724776,15.1873706 0.560177715,14.1229872 C0.518463875,13.2087532 0.504047276,12.8279528 0.500779551,11.0275584 L0.500779551,8.97246663 C0.504047276,7.17204719 0.518463875,6.79124679 0.560177715,5.87701279 C0.608724776,4.81262938 0.777786048,4.0856937 1.0250069,3.44962002 C1.28052401,2.79203161 1.62245728,2.23435568 2.17838663,1.67838663 C2.73435568,1.12245728 3.29203161,0.780524015 3.94962002,0.525006897 C4.5856937,0.277786048 5.31262938,0.108724776 6.37701279,0.0601777148 C7.24312921,0.0206593401 7.63048528,0.0056404285 9.19970252,0.00139051173 L9.47246663,0.000779550849 L11.5275584,0.000779550849 Z M11.0558839,1.80197777 L9.94414763,1.80197777 C7.77898364,1.80351794 7.43549339,1.81556395 6.45914187,1.86011063 C5.48415175,1.9045691 4.95465931,2.06747764 4.60228624,2.2044256 C4.135512,2.38583204 3.80239103,2.60252738 3.45247906,2.95247906 C3.10252738,3.30239103 2.88583204,3.635512 2.7044256,4.10228624 C2.56747764,4.45465931 2.4045691,4.98415175 2.36011063,5.95914187 C2.31556395,6.93549339 2.30351794,7.27898364 2.30197777,9.44414763 L2.30197777,10.5558839 C2.30351794,12.7210164 2.31556395,13.0645066 2.36011063,14.0408581 C2.4045691,15.0158483 2.56747764,15.5453407 2.7044256,15.8977138 C2.88583204,16.364488 3.10256708,16.697609 3.45247906,17.0475209 C3.80239103,17.3974726 4.135512,17.614168 4.60228624,17.7955744 C4.95465931,17.9325224 5.48415175,18.0954309 6.45914187,18.1398894 C7.43538313,18.1844361 7.77879715,18.1964821 9.944108,18.1980222 L11.0559241,18.1980222 C13.2212083,18.1964821 13.5646536,18.1844361 14.5408581,18.1398894 C15.5158483,18.0954309 16.0453407,17.9325224 16.3977138,17.7955744 C16.864488,17.614168 17.197609,17.3974726 17.5475209,17.0475209 C17.8974726,16.697609 18.114168,16.364488 18.2955744,15.8977138 C18.4325224,15.5453407 18.5954309,15.0158483 18.6398894,14.0408581 C18.6844361,13.0645066 18.6964821,12.7210164 18.6980222,10.5558839 L18.6980222,9.44414763 C18.6964821,7.27898364 18.6844361,6.93549339 18.6398894,5.95914187 C18.5954309,4.98415175 18.4325224,4.45465931 18.2955744,4.10228624 C18.114168,3.635512 17.8974726,3.30239103 17.5475209,2.95247906 C17.197609,2.60252738 16.864488,2.38583204 16.3977138,2.2044256 C16.0453407,2.06747764 15.5158483,1.9045691 14.5408581,1.86011063 C13.5645066,1.81556395 13.2210164,1.80351794 11.0558839,1.80197777 Z M10.5000198,4.86486808 C13.3360733,4.86486808 15.6351319,7.16392671 15.6351319,10.0000198 C15.6351319,12.8360733 13.3360733,15.1351319 10.5000198,15.1351319 C7.66392671,15.1351319 5.36486808,12.8360733 5.36486808,10.0000198 C5.36486808,7.16392671 7.66392671,4.86486808 10.5000198,4.86486808 Z M10.5000198,6.66666667 C8.65904224,6.66666667 7.16666667,8.15904224 7.16666667,10.0000198 C7.16666667,11.8409578 8.65904224,13.3333333 10.5000198,13.3333333 C12.3409578,13.3333333 13.8333333,11.8409578 13.8333333,10.0000198 C13.8333333,8.15904224 12.3409578,6.66666667 10.5000198,6.66666667 Z M15.8380134,3.46196518 C16.5007621,3.46196518 17.0380348,3.99923785 17.0380348,4.66198662 C17.0380348,5.32473538 16.5007621,5.86196836 15.8380134,5.86196836 C15.1753043,5.86196836 14.6380316,5.32473538 14.6380316,4.66198662 C14.6380316,3.99923785 15.1753043,3.46196518 15.8380134,3.46196518 Z" id="path-3"></path>
        <path d="M20.5,2.40636812 C19.7651288,2.74102564 18.9739097,2.9673408 18.1439514,3.06846033 C18.9915185,2.548417 19.6418677,1.72381124 19.9482597,0.741507163 C19.1546927,1.22302877 18.2777778,1.57333574 17.3409931,1.76112917 C16.5943828,0.943746238 15.5272935,0.433333333 14.3463344,0.433333333 C12.0818513,0.433333333 10.2446734,2.31728663 10.2446734,4.64062839 C10.2446734,4.97047069 10.2798908,5.29068256 10.3503258,5.59885639 C6.94010096,5.423101 3.9172683,3.74981341 1.8922639,1.2013603 C1.5389153,1.82493078 1.33700182,2.548417 1.33700182,3.31885157 C1.33700182,4.77786204 2.06130774,6.06593235 3.16244057,6.82071747 C2.49096085,6.8002528 1.85704643,6.60884796 1.30295827,6.29585891 L1.30295827,6.34762249 C1.30295827,8.3868665 2.71752656,10.0878416 4.59579151,10.4730589 C4.25183424,10.5717708 3.88909432,10.6211268 3.51461525,10.6211268 C3.25048424,10.6211268 2.99222281,10.5958469 2.74217879,10.5464909 C3.26457123,12.2173709 4.77892235,13.4344168 6.57501321,13.4669195 C5.17101015,14.5960876 3.40074544,15.2690141 1.47904561,15.2690141 C1.14800141,15.2690141 0.820478958,15.2497532 0.5,15.2112315 C2.31604743,16.4029975 4.47370429,17.1 6.78983976,17.1 C14.338117,17.1 18.4644304,10.6897436 18.4644304,5.12937282 C18.4644304,4.94639461 18.4609086,4.7634164 18.4538651,4.5840496 C19.2556495,3.99057421 19.9517814,3.25023474 20.5,2.40636812" id="path-5"></path>
    </defs>
    <g id="Mock-up" stroke="none" stroke-width="1" fill="none" fill-rule="evenodd">
        <g id="Mobile" transform="translate(-102.000000, -3433.000000)">
            <g id="footer" transform="translate(0.000000, 3257.000000)">
                <g id="social-icons" transform="translate(102.000000, 133.000000)">
                    <g id="🤖-icons-/-social-/-facebook" transform="translate(0.000000, 43.000000)">
                        <mask id="mask-2" fill="white">
                            <use xlink:href="#path-1"></use>
                        </mask>
                        <g id="facebook"></g>
                        <g id="🌈-colors-/-black" mask="url(#mask-2)" fill="#1C1E20">
                            <g transform="translate(0.000000, -43.000000)" id="colors-/-black">
                                <rect x="0" y="0" width="21" height="106"></rect>
                            </g>
                        </g>
                    </g>
                    <g id="🤖-icons-/-social-/-facebook" transform="translate(75.000000, 43.000000)">
                        <mask id="mask-4" fill="white">
                            <use xlink:href="#path-3"></use>
                        </mask>
                        <use id="instagram" fill="#FFFFFF" xlink:href="#path-3"></use>
                        <g id="🌈-colors-/-black" mask="url(#mask-4)" fill="#1C1E20">
                            <g transform="translate(0.000000, -43.000000)" id="colors-/-black">
                                <rect x="0" y="0" width="21" height="106"></rect>
                            </g>
                        </g>
                    </g>
                    <g id="🤖-icons-/-social-/-facebook" transform="translate(150.000000, 46.000000)">
                        <mask id="mask-6" fill="white">
                            <use xlink:href="#path-5"></use>
                        </mask>
                        <use id="twitter" fill="#00AAEC" xlink:href="#path-5"></use>
                        <g id="🌈-colors-/-black" mask="url(#mask-6)" fill="#1C1E20">
                            <g transform="translate(0.000000, -46.000000)" id="colors-/-black">
                                <rect x="0" y="0" width="21" height="106"></rect>
                            </g>
                        </g>
                    </g>
                </g>
            </g>
        </g>
    </g>
</svg>